%TF.GenerationSoftware,KiCad,Pcbnew,7.0.7-7.0.7~ubuntu22.04.1*%
%TF.CreationDate,2023-10-27T12:25:05+02:00*%
%TF.ProjectId,logic_probe,6c6f6769-635f-4707-926f-62652e6b6963,rev?*%
%TF.SameCoordinates,Original*%
%TF.FileFunction,Copper,L1,Top*%
%TF.FilePolarity,Positive*%
%FSLAX46Y46*%
G04 Gerber Fmt 4.6, Leading zero omitted, Abs format (unit mm)*
G04 Created by KiCad (PCBNEW 7.0.7-7.0.7~ubuntu22.04.1) date 2023-10-27 12:25:05*
%MOMM*%
%LPD*%
G01*
G04 APERTURE LIST*
%TA.AperFunction,ComponentPad*%
%ADD10R,1.700000X1.700000*%
%TD*%
%TA.AperFunction,ComponentPad*%
%ADD11O,1.700000X1.700000*%
%TD*%
%TA.AperFunction,ConnectorPad*%
%ADD12R,0.700000X4.300000*%
%TD*%
%TA.AperFunction,ConnectorPad*%
%ADD13R,0.700000X3.200000*%
%TD*%
%TA.AperFunction,ViaPad*%
%ADD14C,0.400000*%
%TD*%
%TA.AperFunction,Conductor*%
%ADD15C,0.250000*%
%TD*%
G04 APERTURE END LIST*
D10*
%TO.P,J2,1,Pin_1*%
%TO.N,GND*%
X111435000Y-102350000D03*
D11*
%TO.P,J2,2,Pin_2*%
X111435000Y-104890000D03*
%TO.P,J2,3,Pin_3*%
%TO.N,/D0*%
X108895000Y-102350000D03*
%TO.P,J2,4,Pin_4*%
%TO.N,/D8*%
X108895000Y-104890000D03*
%TO.P,J2,5,Pin_5*%
%TO.N,/D1*%
X106355000Y-102350000D03*
%TO.P,J2,6,Pin_6*%
%TO.N,/D9*%
X106355000Y-104890000D03*
%TO.P,J2,7,Pin_7*%
%TO.N,/D2*%
X103815000Y-102350000D03*
%TO.P,J2,8,Pin_8*%
%TO.N,/D10*%
X103815000Y-104890000D03*
%TO.P,J2,9,Pin_9*%
%TO.N,/D3*%
X101275000Y-102350000D03*
%TO.P,J2,10,Pin_10*%
%TO.N,/D11*%
X101275000Y-104890000D03*
%TO.P,J2,11,Pin_11*%
%TO.N,/D4*%
X98735000Y-102350000D03*
%TO.P,J2,12,Pin_12*%
%TO.N,/D12*%
X98735000Y-104890000D03*
%TO.P,J2,13,Pin_13*%
%TO.N,/D5*%
X96195000Y-102350000D03*
%TO.P,J2,14,Pin_14*%
%TO.N,/D13*%
X96195000Y-104890000D03*
%TO.P,J2,15,Pin_15*%
%TO.N,/D6*%
X93655000Y-102350000D03*
%TO.P,J2,16,Pin_16*%
%TO.N,/D14*%
X93655000Y-104890000D03*
%TO.P,J2,17,Pin_17*%
%TO.N,/D7*%
X91115000Y-102350000D03*
%TO.P,J2,18,Pin_18*%
%TO.N,/D15*%
X91115000Y-104890000D03*
%TO.P,J2,19,Pin_19*%
%TO.N,GND*%
X88575000Y-102350000D03*
%TO.P,J2,20,Pin_20*%
X88575000Y-104890000D03*
%TD*%
D12*
%TO.P,J1,A18,A18*%
%TO.N,/D8*%
X109500000Y-82300000D03*
%TO.P,J1,A17,A17*%
%TO.N,GND*%
X108500000Y-82300000D03*
%TO.P,J1,A16,A16*%
%TO.N,/D9*%
X107500000Y-82300000D03*
%TO.P,J1,A15,A15*%
%TO.N,GND*%
X106500000Y-82300000D03*
%TO.P,J1,A14,A14*%
%TO.N,/D10*%
X105500000Y-82300000D03*
%TO.P,J1,A13,A13*%
%TO.N,GND*%
X104500000Y-82300000D03*
%TO.P,J1,A12,A12*%
%TO.N,/D11*%
X103500000Y-82300000D03*
%TO.P,J1,A11,A11*%
%TO.N,GND*%
X100500000Y-82300000D03*
%TO.P,J1,A10,A10*%
%TO.N,/D12*%
X99500000Y-82300000D03*
%TO.P,J1,A9,A9*%
%TO.N,GND*%
X98500000Y-82300000D03*
%TO.P,J1,A8,A8*%
%TO.N,/D13*%
X97500000Y-82300000D03*
%TO.P,J1,A7,A7*%
%TO.N,GND*%
X96500000Y-82300000D03*
%TO.P,J1,A6,A6*%
%TO.N,/D14*%
X95500000Y-82300000D03*
%TO.P,J1,A5,A5*%
%TO.N,GND*%
X94500000Y-82300000D03*
%TO.P,J1,A4,A4*%
%TO.N,/D15*%
X93500000Y-82300000D03*
%TO.P,J1,A3,A3*%
%TO.N,GND*%
X92500000Y-82300000D03*
%TO.P,J1,A2,A2*%
%TO.N,unconnected-(J1-PadA2)*%
X91500000Y-82300000D03*
D13*
%TO.P,J1,A1,A1*%
%TO.N,GND*%
X90500000Y-82850000D03*
%TD*%
D14*
%TO.N,GND*%
X108500000Y-85500000D03*
X106500000Y-85500000D03*
X104500000Y-85500000D03*
X100500000Y-85500000D03*
X98500000Y-85500000D03*
X96500000Y-85500000D03*
X94500000Y-85500000D03*
X92500000Y-85500000D03*
X90500000Y-85500000D03*
%TD*%
D15*
%TO.N,/D10*%
X105500000Y-82300000D02*
X105500000Y-100000000D01*
X105500000Y-100000000D02*
X105000000Y-100500000D01*
X105000000Y-100500000D02*
X105000000Y-103705000D01*
X105000000Y-103705000D02*
X103815000Y-104890000D01*
%TO.N,/D12*%
X98735000Y-104890000D02*
X99910000Y-103715000D01*
X102000000Y-89500000D02*
X99500000Y-87000000D01*
X99910000Y-103715000D02*
X99910000Y-101226650D01*
X99910000Y-101226650D02*
X102000000Y-99136650D01*
X102000000Y-99136650D02*
X102000000Y-89500000D01*
X99500000Y-87000000D02*
X99500000Y-82300000D01*
%TO.N,/D8*%
X108895000Y-104890000D02*
X110070000Y-103715000D01*
X110070000Y-103715000D02*
X110070000Y-101863299D01*
X110070000Y-101863299D02*
X109500000Y-101293299D01*
X109500000Y-101293299D02*
X109500000Y-82300000D01*
%TO.N,/D9*%
X106355000Y-104890000D02*
X107530000Y-103715000D01*
X107530000Y-103715000D02*
X107530000Y-82330000D01*
X107530000Y-82330000D02*
X107500000Y-82300000D01*
%TO.N,/D11*%
X101275000Y-104890000D02*
X102450000Y-103715000D01*
X102450000Y-103715000D02*
X102450000Y-101863299D01*
X102450000Y-101863299D02*
X103500000Y-100813299D01*
X103500000Y-100813299D02*
X103500000Y-82300000D01*
%TO.N,/D13*%
X96195000Y-104890000D02*
X97500000Y-103585000D01*
X97500000Y-103585000D02*
X97500000Y-82300000D01*
%TO.N,/D14*%
X93655000Y-104890000D02*
X94830000Y-103715000D01*
X94830000Y-103715000D02*
X94830000Y-101863299D01*
X94830000Y-101863299D02*
X95500000Y-101193299D01*
X95500000Y-101193299D02*
X95500000Y-82300000D01*
%TO.N,/D15*%
X91115000Y-104890000D02*
X92290000Y-103715000D01*
X92290000Y-103715000D02*
X92290000Y-101863299D01*
X92290000Y-101863299D02*
X93500000Y-100653299D01*
X93500000Y-100653299D02*
X93500000Y-82300000D01*
%TO.N,GND*%
X108500000Y-82300000D02*
X108500000Y-85500000D01*
X106500000Y-82300000D02*
X106500000Y-85500000D01*
X104500000Y-82300000D02*
X104500000Y-85500000D01*
X100500000Y-82300000D02*
X100500000Y-85500000D01*
X98500000Y-82300000D02*
X98500000Y-85500000D01*
X96500000Y-82300000D02*
X96500000Y-85500000D01*
X94500000Y-82300000D02*
X94500000Y-85500000D01*
X92500000Y-82300000D02*
X92500000Y-85500000D01*
X90500000Y-82850000D02*
X90500000Y-85500000D01*
%TD*%
M02*
